<svg width="40" height="40" viewBox="0 0 40 40" fill="none" xmlns="http://www.w3.org/2000/svg">
<path d="M27.6978 0C27.7909 0 27.884 0 27.9823 0C28.2107 2.82088 27.1339 4.92864 25.8254 6.45501C24.5414 7.97084 22.7832 9.441 19.9395 9.21793C19.7498 6.43745 20.8282 4.48601 22.135 2.96316C23.347 1.54393 25.5689 0.281035 27.6978 0Z" fill="white"/>
<path d="M36.3061 29.361C36.3061 29.3891 36.3061 29.4137 36.3061 29.44C35.5069 31.8604 34.367 33.9348 32.9758 35.8599C31.7059 37.6076 30.1497 39.9595 27.371 39.9595C24.9699 39.9595 23.375 38.4155 20.9142 38.3734C18.3111 38.3312 16.8796 39.6644 14.4996 39.9999C14.2273 39.9999 13.9551 39.9999 13.6881 39.9999C11.9404 39.7469 10.53 38.3629 9.50243 37.1158C6.47253 33.4307 4.13116 28.6707 3.69556 22.5792C3.69556 21.982 3.69556 21.3866 3.69556 20.7894C3.87999 16.4299 5.99828 12.8853 8.8139 11.1675C10.2999 10.2541 12.3426 9.47601 14.6173 9.82379C15.5921 9.97485 16.588 10.3086 17.461 10.6388C18.2883 10.9567 19.3228 11.5205 20.3029 11.4907C20.9669 11.4714 21.6273 11.1253 22.2965 10.8812C24.2567 10.1733 26.1783 9.36184 28.7111 9.743C31.7551 10.2032 33.9156 11.5557 35.2505 13.6424C32.6755 15.2811 30.6397 17.7507 30.9875 21.968C31.2967 25.7989 33.5239 28.0401 36.3061 29.361Z" fill="white"/>
</svg>
