<svg width="55" height="55" viewBox="0 0 55 55" fill="none" xmlns="http://www.w3.org/2000/svg">
<g clip-path="url(#clip0_906_251)">
<path d="M60.5 -5.5H-5.5V60.5H60.5V-5.5Z" fill="#2B59C3"/>
<path d="M60.5 -5.5H-5.5V60.5H60.5V-5.5Z" fill="#EFF3FA"/>
<path d="M36.6404 30.4112C36.469 32.7871 35.5919 34.6571 34.0095 36.0212C32.4283 37.3859 30.3434 38.0677 27.7556 38.0677C24.9242 38.0677 22.6979 37.1155 21.0754 35.21C19.4529 33.305 18.6416 30.6897 18.6416 27.3633V26.0135C18.6416 23.8914 19.0151 22.0214 19.7622 20.4035C20.5105 18.7856 21.5801 17.5452 22.9706 16.6818C24.3605 15.8173 25.9755 15.3848 27.8151 15.3848C30.3635 15.3848 32.4151 16.0671 33.9706 17.4312C35.5272 18.7959 36.4272 20.7117 36.6701 23.1787H32.1212C32.0095 21.7533 31.6124 20.7198 30.9295 20.0781C30.2477 19.4353 29.2096 19.1133 27.8151 19.1133C26.2992 19.1133 25.1648 19.6576 24.412 20.745C23.6586 21.8312 23.2719 23.5167 23.2524 25.8004V27.4687C23.2524 29.8555 23.6134 31.5995 24.3364 32.7006C25.0588 33.8023 26.1984 34.3529 27.7556 34.3529C29.1592 34.3529 30.2076 34.0321 30.8997 33.3904C31.593 32.7487 31.9906 31.7559 32.0914 30.4112H36.6404Z" fill="#2B59C3"/>
</g>
<rect x="0.75" y="0.75" width="53.5" height="53.5" rx="26.75" stroke="#2B59C3" stroke-width="1.5"/>
<defs>
<clipPath id="clip0_906_251">
<rect width="55" height="55" rx="27.5" fill="white"/>
</clipPath>
</defs>
</svg>
