<svg width="198" height="63" viewBox="0 0 198 63" fill="none" xmlns="http://www.w3.org/2000/svg">
<path d="M18.05 52.5C16.25 52.5 14.6167 52.15 13.15 51.45C11.7167 50.7167 10.5333 49.7167 9.6 48.45L9.45 51.35C9.45 51.7833 9.21667 52 8.75 52H4.05C3.61667 52 3.4 51.7833 3.4 51.35V15.15C3.4 14.7167 3.61667 14.5 4.05 14.5H9.25C9.68333 14.5 9.9 14.7167 9.9 15.15V29.25C10.8333 28.1167 12 27.2333 13.4 26.6C14.8 25.9333 16.35 25.6 18.05 25.6C20.5167 25.6 22.65 26.1667 24.45 27.3C26.2833 28.4333 27.6833 30.0167 28.65 32.05C29.65 34.05 30.15 36.3833 30.15 39.05C30.15 41.6833 29.65 44.0167 28.65 46.05C27.6833 48.0833 26.2833 49.6667 24.45 50.8C22.65 51.9333 20.5167 52.5 18.05 52.5ZM16.45 46.6C18.5167 46.6 20.2 45.9 21.5 44.5C22.8 43.1 23.45 41.2833 23.45 39.05C23.45 36.8167 22.8 35 21.5 33.6C20.2 32.2 18.5167 31.5 16.45 31.5C14.3833 31.5 12.7 32.2 11.4 33.6C10.1 35 9.45 36.8167 9.45 39.05C9.45 41.2833 10.1 43.1 11.4 44.5C12.7 45.9 14.3833 46.6 16.45 46.6ZM47.0313 52.5C44.3313 52.5 41.9979 51.9333 40.0313 50.8C38.0646 49.6333 36.5479 48.0333 35.4813 46C34.4479 43.9667 33.9313 41.65 33.9313 39.05C33.9313 36.4167 34.4479 34.1 35.4813 32.1C36.5479 30.0667 38.0646 28.4833 40.0313 27.35C41.9979 26.1833 44.3313 25.6 47.0313 25.6C49.6979 25.6 51.9479 26.2167 53.7813 27.45C55.6479 28.6833 57.0479 30.4167 57.9813 32.65C58.9479 34.85 59.3813 37.4333 59.2813 40.4C59.2479 40.8333 59.0146 41.05 58.5813 41.05H40.8313C41.1313 42.8167 41.8146 44.2167 42.8813 45.25C43.9479 46.25 45.3479 46.75 47.0813 46.75C49.6813 46.75 51.5813 45.7667 52.7813 43.8C52.9479 43.5 53.2313 43.4 53.6313 43.5L58.0813 45.05C58.5146 45.2167 58.6313 45.5 58.4312 45.9C57.2979 48.1667 55.7146 49.8333 53.6813 50.9C51.6479 51.9667 49.4313 52.5 47.0313 52.5ZM46.9813 31.35C45.4479 31.35 44.1479 31.7833 43.0813 32.65C42.0479 33.4833 41.3313 34.6667 40.9313 36.2H52.3313C52.0313 34.6667 51.4146 33.4833 50.4813 32.65C49.5479 31.7833 48.3813 31.35 46.9813 31.35Z" fill="#2B59C3"/>
<path d="M70.5668 52C70.1668 52 69.9168 51.8333 69.8168 51.5L60.7668 26.85C60.6001 26.35 60.7835 26.1 61.3168 26.1H67.5668C67.9335 26.1 68.1668 26.2833 68.2668 26.65L72.6668 40.95L78.7168 26.6C78.8835 26.2667 79.1335 26.1 79.4668 26.1H82.7668C83.1335 26.1 83.3835 26.2667 83.5168 26.6L89.2668 40.6L93.9168 26.65C94.0168 26.2833 94.2668 26.1 94.6668 26.1H100.367C100.9 26.1 101.083 26.35 100.917 26.85L91.8668 51.5C91.7668 51.8333 91.5168 52 91.1168 52H87.8168C87.4501 52 87.2001 51.8333 87.0668 51.5L81.0168 36.7L74.6168 51.5C74.4501 51.8333 74.2001 52 73.8668 52H70.5668ZM108.603 21.5C107.536 21.5 106.636 21.1667 105.903 20.5C105.17 19.8333 104.803 18.9667 104.803 17.9C104.803 16.8333 105.17 15.9667 105.903 15.3C106.636 14.6333 107.536 14.3 108.603 14.3C109.67 14.3 110.57 14.6333 111.303 15.3C112.036 15.9667 112.403 16.8333 112.403 17.9C112.403 18.9667 112.036 19.8333 111.303 20.5C110.57 21.1667 109.67 21.5 108.603 21.5ZM106.003 52C105.57 52 105.353 51.7833 105.353 51.35V26.75C105.353 26.3167 105.57 26.1 106.003 26.1H111.203C111.636 26.1 111.853 26.3167 111.853 26.75V51.35C111.853 51.7833 111.636 52 111.203 52H106.003ZM127.934 52.5C125.101 52.5 122.718 51.9167 120.784 50.75C118.884 49.55 117.518 47.8333 116.684 45.6C116.518 45.1667 116.668 44.9 117.134 44.8L121.684 43.55C122.051 43.45 122.318 43.5833 122.484 43.95C123.084 44.9833 123.818 45.7167 124.684 46.15C125.584 46.55 126.584 46.75 127.684 46.75C128.784 46.75 129.684 46.6167 130.384 46.35C131.118 46.0833 131.484 45.5833 131.484 44.85C131.484 44.2833 131.184 43.8333 130.584 43.5C129.984 43.1333 129.001 42.75 127.634 42.35L126.384 42C123.284 41.1333 121.068 39.95 119.734 38.45C118.434 36.95 117.784 35.2 117.784 33.2C117.784 31.7333 118.201 30.4333 119.034 29.3C119.868 28.1333 121.018 27.2333 122.484 26.6C123.984 25.9333 125.701 25.6 127.634 25.6C130.134 25.6 132.251 26.1333 133.984 27.2C135.718 28.2667 136.984 29.9 137.784 32.1C137.951 32.5333 137.818 32.8 137.384 32.9L132.834 34.35C132.468 34.4833 132.184 34.3667 131.984 34C131.551 33.2 130.968 32.5667 130.234 32.1C129.534 31.6 128.634 31.35 127.534 31.35C126.701 31.35 125.984 31.5 125.384 31.8C124.784 32.0667 124.484 32.5333 124.484 33.2C124.484 33.8 124.784 34.3 125.384 34.7C126.018 35.0667 127.051 35.4333 128.484 35.8L129.684 36.1C132.851 36.9 135.051 38 136.284 39.4C137.551 40.7667 138.184 42.5333 138.184 44.7C138.184 46.2667 137.734 47.65 136.834 48.85C135.968 50.0167 134.768 50.9167 133.234 51.55C131.701 52.1833 129.934 52.5 127.934 52.5ZM154.697 52.5C151.997 52.5 149.664 51.9333 147.697 50.8C145.731 49.6333 144.214 48.0333 143.147 46C142.114 43.9667 141.597 41.65 141.597 39.05C141.597 36.4167 142.114 34.1 143.147 32.1C144.214 30.0667 145.731 28.4833 147.697 27.35C149.664 26.1833 151.997 25.6 154.697 25.6C157.364 25.6 159.614 26.2167 161.447 27.45C163.314 28.6833 164.714 30.4167 165.647 32.65C166.614 34.85 167.047 37.4333 166.947 40.4C166.914 40.8333 166.681 41.05 166.247 41.05H148.497C148.797 42.8167 149.481 44.2167 150.547 45.25C151.614 46.25 153.014 46.75 154.747 46.75C157.347 46.75 159.247 45.7667 160.447 43.8C160.614 43.5 160.897 43.4 161.297 43.5L165.747 45.05C166.181 45.2167 166.297 45.5 166.097 45.9C164.964 48.1667 163.381 49.8333 161.347 50.9C159.314 51.9667 157.097 52.5 154.697 52.5ZM154.647 31.35C153.114 31.35 151.814 31.7833 150.747 32.65C149.714 33.4833 148.997 34.6667 148.597 36.2H159.997C159.697 34.6667 159.081 33.4833 158.147 32.65C157.214 31.7833 156.047 31.35 154.647 31.35ZM186.096 52.5C184.962 52.5 183.996 52.1333 183.196 51.4C182.429 50.6333 182.046 49.6833 182.046 48.55C182.046 47.3833 182.429 46.4333 183.196 45.7C183.996 44.9667 184.962 44.6 186.096 44.6C187.262 44.6 188.229 44.9667 188.996 45.7C189.762 46.4333 190.146 47.3833 190.146 48.55C190.146 49.6833 189.762 50.6333 188.996 51.4C188.229 52.1333 187.262 52.5 186.096 52.5Z" fill="#253C78"/>
</svg>
