<svg width="52" height="52" viewBox="0 0 52 52" fill="none" xmlns="http://www.w3.org/2000/svg">
<g clip-path="url(#clip0_906_240)">
<path d="M26 0C11.6406 0 0 11.6406 0 26C0 40.3594 11.6406 52 26 52C40.3594 52 52 40.3594 52 26C51.9838 11.6473 40.3527 0.0162388 26 0ZM26 50.2667C12.5979 50.2667 1.73333 39.4021 1.73333 26C1.73333 12.5979 12.5979 1.73333 26 1.73333C39.4021 1.73333 50.2667 12.5979 50.2667 26C50.2514 39.3958 39.3958 50.2514 26 50.2667Z" fill="#2B59C3"/>
<path d="M27.7333 40.7334C27.2547 40.7334 26.8666 41.1214 26.8666 41.6001C26.8666 42.0787 26.4786 42.4667 26 42.4667C25.5213 42.4667 25.1333 42.8548 25.1333 43.3334C25.1333 43.812 25.5213 44.2001 26 44.2001C27.4359 44.2001 28.6 43.036 28.6 41.6001C28.6 41.1214 28.2119 40.7334 27.7333 40.7334Z" fill="#2B59C3"/>
<path d="M37.2667 32.9334C34.8746 32.9363 32.9362 34.8747 32.9333 37.2667C32.9374 37.5043 32.9615 37.7412 33.0053 37.9748L31.2893 38.6387C30.366 36.9969 28.7332 35.8764 26.8693 35.6053V33.7134C29.0489 33.2685 30.5376 31.2454 30.314 29.0321C30.0904 26.8188 28.2272 25.1343 26.0026 25.1343C23.778 25.1343 21.9148 26.8188 21.6912 29.0321C21.4676 31.2454 22.9563 33.2685 25.1359 33.7134V35.6027C23.2719 35.8738 21.6392 36.9943 20.7159 38.6361L18.9999 37.9722C19.0418 37.7393 19.0642 37.5033 19.0667 37.2667C19.0827 35.0956 17.499 33.2434 15.3517 32.9222C13.2043 32.601 11.1479 33.9086 10.5279 35.9894C9.90793 38.0702 10.9134 40.2901 12.8863 41.1965C14.8593 42.1029 17.1985 41.4196 18.3733 39.5937L20.085 40.2567C19.5236 42.6912 20.5121 45.2209 22.5753 46.6299C24.6385 48.0388 27.3545 48.0388 29.4177 46.6299C31.4809 45.2209 32.4694 42.6912 31.9081 40.2567L33.6197 39.5937C34.7369 41.3488 36.9437 42.0621 38.8768 41.2932C40.81 40.5243 41.9239 38.49 41.5304 36.4471C41.1369 34.4042 39.3471 32.9293 37.2667 32.9334ZM14.7333 39.8667C13.2974 39.8667 12.1333 38.7027 12.1333 37.2667C12.1333 35.8308 13.2974 34.6667 14.7333 34.6667C16.1693 34.6667 17.3333 35.8308 17.3333 37.2667C17.3333 38.7027 16.1693 39.8667 14.7333 39.8667ZM23.4 29.4667C23.4 28.0308 24.564 26.8667 26 26.8667C27.4359 26.8667 28.6 28.0308 28.6 29.4667C28.6 30.9027 27.4359 32.0667 26 32.0667C24.564 32.0667 23.4 30.9027 23.4 29.4667ZM26 45.9334C23.6068 45.9334 21.6667 43.9933 21.6667 41.6001C21.6667 39.2068 23.6068 37.2667 26 37.2667C28.3932 37.2667 30.3333 39.2068 30.3333 41.6001C30.3305 43.9921 28.392 45.9305 26 45.9334ZM37.2667 39.8667C35.8307 39.8667 34.6667 38.7027 34.6667 37.2667C34.6667 35.8308 35.8307 34.6667 37.2667 34.6667C38.7026 34.6667 39.8667 35.8308 39.8667 37.2667C39.8667 38.7027 38.7026 39.8667 37.2667 39.8667Z" fill="#2B59C3"/>
<path d="M17.7963 28.3444C18.0898 28.0156 18.0898 27.5188 17.7963 27.19C17.6923 27.073 15.2093 24.3352 12.0295 24.3352C11.8561 24.3352 11.6949 24.3465 11.5303 24.3612L13.4985 22.393C14.8916 23.7113 16.7042 24.4974 18.6187 24.6134C21.7977 24.6134 24.2815 21.8756 24.3864 21.7595C24.6805 21.4305 24.6805 20.9331 24.3864 20.6042C24.2824 20.4872 21.7977 17.7485 18.6187 17.7485C18.4454 17.7485 18.2842 17.7598 18.1187 17.7745L20.0921 15.802C21.4857 17.1197 23.2987 17.9048 25.2132 18.0198C28.393 18.0198 30.876 15.2811 30.98 15.1598C31.2736 14.831 31.2736 14.3342 30.98 14.0054C30.0738 13.0463 28.9901 12.2722 27.7889 11.7261C29.9235 9.4684 29.7493 5.89426 29.7398 5.74086C29.7146 5.30165 29.3643 4.951 28.9251 4.92533C28.7726 4.91926 25.1985 4.7416 22.9399 6.87793C22.3939 5.67644 21.6198 4.59239 20.6606 3.686C20.3318 3.39243 19.835 3.39243 19.5062 3.686C19.3892 3.79086 16.6462 6.27386 16.6462 9.4528C16.7607 11.3663 17.5453 13.1784 18.8623 14.5713L16.9001 16.5439C16.914 16.3801 16.9253 16.2163 16.9253 16.0481C16.9253 12.8683 14.1875 10.3853 14.0705 10.2813C13.7417 9.98776 13.2449 9.98776 12.9161 10.2813C12.7999 10.3853 10.0613 12.8683 10.0613 16.0481C10.1758 17.9616 10.9603 19.7738 12.2773 21.1667L10.3109 23.134C10.3256 22.9702 10.3369 22.8055 10.3369 22.6374C10.3369 19.4585 7.5982 16.9746 7.4812 16.8706C7.15239 16.577 6.65561 16.577 6.3268 16.8706C6.20546 16.9746 3.4668 19.4585 3.4668 22.6374C3.58186 24.5512 4.36667 26.3635 5.68373 27.7568L4.81706 28.6235C4.59177 28.8411 4.50141 29.1633 4.58073 29.4663C4.66004 29.7693 4.89668 30.006 5.19969 30.0853C5.5027 30.1646 5.82493 30.0742 6.04253 29.8489L6.9092 28.9823C8.30271 30.2996 10.1153 31.0847 12.0295 31.2001C15.2093 31.2001 17.6923 28.4614 17.7963 28.3444ZM22.4849 21.1797C21.4278 22.1708 20.0637 22.7707 18.6187 22.8801C17.171 22.7697 15.8039 22.17 14.7421 21.1797C15.8029 20.1882 17.1707 19.5892 18.6187 19.4819C20.0627 19.5931 21.426 20.1917 22.4849 21.1797ZM25.2132 16.283C23.7659 16.1726 22.3991 15.5733 21.3375 14.5835C22.3993 13.594 23.766 12.9949 25.2132 12.8848C26.6567 12.9965 28.0194 13.5955 29.0777 14.5835C28.0196 15.572 26.6568 16.1713 25.2132 16.283ZM24.0519 8.20653C25.1535 7.26339 26.544 6.72438 27.9935 6.6786C27.9481 8.12707 27.4079 9.51629 26.4629 10.615C26.2436 10.8304 25.9998 11.0195 25.7367 11.1783C25.5633 11.1627 25.39 11.1515 25.2167 11.1515C24.5081 11.1571 23.8058 11.284 23.1401 11.5267C23.3818 10.862 23.5087 10.161 23.5154 9.45366C23.5154 9.28033 23.5041 9.107 23.4877 8.93366C23.6472 8.67044 23.8365 8.42646 24.0519 8.20653ZM20.0834 5.59006C21.0717 6.6479 21.671 8.01031 21.7829 9.45366C21.6726 10.9007 21.0732 12.2672 20.0834 13.3285C19.0936 12.2672 18.4942 10.9007 18.3839 9.45366C18.4958 8.01031 19.0951 6.6479 20.0834 5.59006ZM13.4907 12.1819C14.481 13.2392 15.0798 14.6035 15.1876 16.0481C15.0775 17.4951 14.4784 18.8615 13.4889 19.923C12.4994 18.8615 11.9004 17.4951 11.7903 16.0481C11.9021 14.6038 12.5017 13.2405 13.4907 12.1819ZM6.904 18.7738C7.89073 19.8322 8.48848 21.1946 8.5992 22.6374C8.48883 24.0845 7.88949 25.4509 6.89966 26.5123C5.90984 25.4509 5.3105 24.0845 5.20013 22.6374C5.31205 21.194 5.91135 19.8316 6.89966 18.7738H6.904ZM12.0338 26.0685C13.4773 26.1802 14.84 26.7792 15.8983 27.7672C14.8391 28.7566 13.4746 29.356 12.0295 29.4667C10.5821 29.3563 9.2154 28.757 8.15373 27.7672C9.21553 26.7777 10.5823 26.1787 12.0295 26.0685H12.0338Z" fill="#2B59C3"/>
<path d="M32.4798 12.2615C32.0724 12.5116 31.9444 13.0444 32.1938 13.4523V13.4584C33.5302 15.8083 34.0381 18.5391 33.636 21.2124C33.5727 21.67 33.4626 22.1068 33.2832 22.8756C33.1337 23.4828 33.0627 24.1067 33.0718 24.732C33.1952 26.8149 34.2571 28.7294 35.9588 29.9369C37.6605 31.1445 39.8182 31.5147 41.8251 30.9434C43.7568 30.4582 45.3509 29.0982 46.1342 27.267C47.468 24.1868 46.5762 20.487 45.4062 18.2536C42.0764 11.8897 33.22 11.8056 32.4798 12.2615ZM43.8765 19.0588C44.9468 21.1024 45.57 24.2198 44.5482 26.578C43.9744 27.9299 42.7938 28.9299 41.3658 29.2733C39.8699 29.7037 38.2595 29.434 36.9855 28.5398C35.7114 27.6455 34.9105 26.2227 34.8068 24.6696C34.8047 24.191 34.8629 23.714 34.9802 23.25C35.1457 22.535 35.2792 22.0098 35.3572 21.4499C35.719 18.8806 35.376 16.2613 34.3648 13.8718C38.2882 14.0806 42.099 15.6684 43.8765 19.0588Z" fill="#2B59C3"/>
<path d="M40.7028 27.6257C40.7834 27.6255 40.8636 27.6141 40.9411 27.5919C42.1307 27.2632 43.0188 26.2704 43.2135 25.0517C43.4184 23.8721 43.3445 22.6609 42.9977 21.5149C42.9127 21.217 42.6753 20.9871 42.3748 20.9118C42.0744 20.8365 41.7566 20.9272 41.5411 21.1497C41.3257 21.3722 41.2453 21.6928 41.3303 21.9907C41.6015 22.8698 41.6644 23.8 41.514 24.7077C41.4457 25.2901 41.0297 25.7724 40.4636 25.9253C40.0471 26.0436 39.7817 26.451 39.842 26.8798C39.9023 27.3086 40.2698 27.627 40.7028 27.6257Z" fill="#2B59C3"/>
</g>
<defs>
<clipPath id="clip0_906_240">
<rect width="52" height="52" fill="white"/>
</clipPath>
</defs>
</svg>
