<svg width="64" height="65" viewBox="0 0 64 65" fill="none" xmlns="http://www.w3.org/2000/svg">
<g clip-path="url(#clip0_906_224)">
<path d="M51.9727 27.1389V46.7801C51.9727 50.5812 48.9279 53.6735 45.1853 53.6735H22.4183L14.2201 63.7763C13.9779 64.0746 13.6214 64.2385 13.2552 64.2385C13.1139 64.2385 12.9713 64.2142 12.8331 64.1638C12.3366 63.9827 12.0054 63.5047 12.0054 62.9689V53.6735H7.6028C3.8603 53.6735 0.81543 50.5812 0.81543 46.7801V34.7513C0.81543 34.0501 1.37518 33.4817 2.06543 33.4817C2.75568 33.4817 3.31543 34.0501 3.31543 34.7513V46.7801C3.31543 49.1811 5.2388 51.1344 7.6028 51.1344H13.2554C13.9457 51.1344 14.5054 51.7028 14.5054 52.404V59.4325L20.8641 51.5965C21.1014 51.3039 21.4553 51.1344 21.8287 51.1344H45.1853C47.5493 51.1344 49.4727 49.181 49.4727 46.7801V27.1389C49.4727 26.4377 50.0324 25.8694 50.7227 25.8694C51.4129 25.8694 51.9727 26.4377 51.9727 27.1389ZM2.06555 30.9743C2.7558 30.9743 3.31555 30.4059 3.31555 29.7047V16.4346C3.31555 14.0335 5.23893 12.0802 7.60293 12.0802H33.9597C34.6499 12.0802 35.2097 11.5119 35.2097 10.8107C35.2097 10.1095 34.6499 9.54116 33.9597 9.54116H7.60293C3.86043 9.54116 0.815555 12.6335 0.815555 16.4346V29.7047C0.815555 30.4059 1.3753 30.9743 2.06555 30.9743ZM24.0949 24.3793C24.9813 22.8262 25.2441 20.5356 24.9468 16.9521C24.8496 15.7758 25.6778 14.7513 26.8324 14.6194C28.8599 14.3871 30.1206 15.2007 30.8208 15.9233C32.9753 18.1472 32.9557 22.5646 32.5906 26.1906H33.6841C36.7564 26.1135 38.4634 26.4092 39.5767 27.2116C40.8303 28.1154 41.0232 29.43 41.2097 30.7012C41.4119 32.0793 41.0143 35.1248 40.5303 37.5317C40.0498 39.921 39.2431 43.0172 38.1278 44.1977C38.1218 44.2041 38.1158 44.2103 38.1097 44.2165C36.4253 45.9272 32.3471 46.3827 28.8756 46.3827C26.5873 46.3827 24.5628 46.1848 23.6608 46.018C22.8353 45.8652 22.1858 45.6746 21.5577 45.4901C20.8816 45.2917 20.2722 45.1132 19.5036 45.0013C19.0666 45.6735 18.3172 46.1186 17.4664 46.1186H13.9631C12.6173 46.1186 11.5227 45.0067 11.5227 43.64V28.9327C11.5227 27.566 12.6174 26.4541 13.9631 26.4541H17.4664C18.1882 26.4541 18.8358 26.7758 19.2829 27.2834C21.7107 26.7871 23.2524 25.8548 24.0947 24.3792L24.0949 24.3793ZM17.4071 28.9934H14.0228V43.5798H17.4071V28.9934ZM19.9071 29.7466V42.4958C20.8263 42.6333 21.5484 42.8445 22.2522 43.0512C22.8467 43.2258 23.4082 43.3905 24.1091 43.5203C27.2898 44.1083 34.7777 43.9782 36.3322 42.4313C36.7422 41.9825 37.4609 40.1074 38.0809 37.0238C38.6342 34.2719 38.8491 31.8384 38.7371 31.0756C38.5757 29.9754 38.4814 29.5359 38.1297 29.2822C37.5382 28.8557 36.0582 28.6697 33.7312 28.7294C33.7207 28.7296 33.7102 28.7297 33.6997 28.7297H31.1868C30.8274 28.7297 30.4856 28.5727 30.2482 28.2986C30.0108 28.0245 29.9012 27.66 29.9471 27.2981C30.5909 22.2188 30.2853 18.9909 29.0387 17.7042C28.7791 17.4363 28.3438 17.0992 27.4677 17.1182C27.9509 23.6336 26.7617 28.2844 19.9071 29.7466ZM62.5076 12.1309L58.0526 16.3744L59.2008 22.467C59.3581 23.3016 59.0353 24.1304 58.3584 24.6297C57.9829 24.9068 57.5459 25.0473 57.1061 25.0473C56.7537 25.0473 56.3996 24.9572 56.0734 24.7749L50.7226 21.7831L45.3721 24.7749C44.6388 25.1846 43.7632 25.1288 43.0867 24.6295C42.4099 24.1302 42.0873 23.3016 42.2446 22.467L43.3927 16.3744L38.9377 12.1308C38.3277 11.5497 38.1092 10.6867 38.3674 9.87873C38.6262 9.07029 39.3024 8.50256 40.1324 8.39655L46.1924 7.6229L48.7896 2.0084C49.1452 1.23944 49.8859 0.761719 50.7226 0.761719C51.5592 0.761719 52.2998 1.23944 52.6556 2.0084L55.2528 7.6229L61.3128 8.39655C62.1427 8.50243 62.8189 9.07029 63.0774 9.8781C63.3361 10.6863 63.1176 11.5494 62.5073 12.1308L62.5076 12.1309ZM60.2318 10.8177L54.2583 10.0551C53.8332 10.0007 53.4651 9.72918 53.2828 9.33537L50.7227 3.80098L48.1627 9.33524C47.9804 9.72918 47.6124 10.0007 47.1872 10.0551L41.2136 10.8177L45.6049 15.0007C45.9174 15.2984 46.0581 15.7379 45.9774 16.1653L44.8457 22.1708L50.1197 19.2218C50.4952 19.012 50.9502 19.012 51.3254 19.2218L56.5996 22.1708L55.4678 16.1652C55.3872 15.7377 55.5278 15.2982 55.8403 15.0005L60.2317 10.8175L60.2318 10.8177Z" fill="#2B59C3"/>
</g>
<defs>
<clipPath id="clip0_906_224">
<rect width="64" height="65" fill="white"/>
</clipPath>
</defs>
</svg>
