<svg width="57" height="57" viewBox="0 0 57 57" fill="none" xmlns="http://www.w3.org/2000/svg">
<path fill-rule="evenodd" clip-rule="evenodd" d="M38.5686 55.2466H49.0873C51.9922 55.2466 54.3467 52.8921 54.3467 49.9872V39.4685C54.3467 38.5007 53.5613 37.7153 52.5936 37.7153C51.6258 37.7153 50.8404 38.5007 50.8404 39.4685V49.9872C50.8404 50.9549 50.055 51.7403 49.0873 51.7403H38.5686C37.6008 51.7403 36.8154 52.5257 36.8154 53.4935C36.8154 54.4612 37.6008 55.2466 38.5686 55.2466ZM17.5311 51.7403H7.0123C6.04458 51.7403 5.25918 50.9549 5.25918 49.9872V39.4685C5.25918 38.5007 4.47378 37.7153 3.50605 37.7153C2.53833 37.7153 1.75293 38.5007 1.75293 39.4685V49.9872C1.75293 52.8921 4.10738 55.2466 7.0123 55.2466H17.5311C18.4988 55.2466 19.2842 54.4612 19.2842 53.4935C19.2842 52.5257 18.4988 51.7403 17.5311 51.7403ZM26.2967 35.9622V46.481C26.2967 47.4487 27.0821 48.2341 28.0498 48.2341C29.0175 48.2341 29.8029 47.4487 29.8029 46.481V35.9622C29.8029 34.9945 29.0175 34.2091 28.0498 34.2091C27.0821 34.2091 26.2967 34.9945 26.2967 35.9622ZM22.7904 35.9622C22.7904 34.9945 22.005 34.2091 21.0373 34.2091H10.5186C9.55083 34.2091 8.76543 34.9945 8.76543 35.9622V46.481C8.76543 47.4487 9.55083 48.2341 10.5186 48.2341H21.0373C22.005 48.2341 22.7904 47.4487 22.7904 46.481V35.9622ZM47.3342 35.9622C47.3342 34.9945 46.5488 34.2091 45.5811 34.2091H35.0623C34.0946 34.2091 33.3092 34.9945 33.3092 35.9622V46.481C33.3092 47.4487 34.0946 48.2341 35.0623 48.2341H45.5811C46.5488 48.2341 47.3342 47.4487 47.3342 46.481V35.9622ZM19.2842 37.7153V44.7278H12.2717V37.7153H19.2842ZM43.8279 37.7153V44.7278H36.8154V37.7153H43.8279ZM26.2967 30.7028H28.0498C29.0175 30.7028 29.8029 29.9174 29.8029 28.9497C29.8029 27.982 29.0175 27.1966 28.0498 27.1966H26.2967C25.329 27.1966 24.5436 27.982 24.5436 28.9497C24.5436 29.9174 25.329 30.7028 26.2967 30.7028ZM10.5186 30.7028H19.2842C20.2519 30.7028 21.0373 29.9174 21.0373 28.9497C21.0373 27.982 20.2519 27.1966 19.2842 27.1966H10.5186C9.55083 27.1966 8.76543 27.982 8.76543 28.9497C8.76543 29.9174 9.55083 30.7028 10.5186 30.7028ZM42.0748 27.1966H43.8279V28.9497C43.8279 29.9174 44.6133 30.7028 45.5811 30.7028C46.5488 30.7028 47.3342 29.9174 47.3342 28.9497V25.4435C47.3342 24.4757 46.5488 23.6903 45.5811 23.6903H42.0748C41.1071 23.6903 40.3217 24.4757 40.3217 25.4435C40.3217 26.4112 41.1071 27.1966 42.0748 27.1966ZM36.8154 28.9497V20.1841H38.5686C39.5363 20.1841 40.3217 19.3987 40.3217 18.431C40.3217 17.4632 39.5363 16.6778 38.5686 16.6778H35.0623C34.0946 16.6778 33.3092 17.4632 33.3092 18.431V28.9497C33.3092 29.9174 34.0946 30.7028 35.0623 30.7028C36.03 30.7028 36.8154 29.9174 36.8154 28.9497ZM26.2967 18.431V21.9372C26.2967 22.9049 27.0821 23.6903 28.0498 23.6903C29.0175 23.6903 29.8029 22.9049 29.8029 21.9372V18.431C29.8029 17.4632 29.0175 16.6778 28.0498 16.6778C27.0821 16.6778 26.2967 17.4632 26.2967 18.431ZM22.7904 11.4185C22.7904 10.4507 22.005 9.66533 21.0373 9.66533H10.5186C9.55083 9.66533 8.76543 10.4507 8.76543 11.4185V21.9372C8.76543 22.9049 9.55083 23.6903 10.5186 23.6903H21.0373C22.005 23.6903 22.7904 22.9049 22.7904 21.9372V11.4185ZM17.5311 2.65283H7.0123C4.10738 2.65283 1.75293 5.00728 1.75293 7.91221V18.431C1.75293 19.3987 2.53833 20.1841 3.50605 20.1841C4.47378 20.1841 5.25918 19.3987 5.25918 18.431V7.91221C5.25918 6.94448 6.04458 6.15908 7.0123 6.15908H17.5311C18.4988 6.15908 19.2842 5.37368 19.2842 4.40596C19.2842 3.43823 18.4988 2.65283 17.5311 2.65283ZM19.2842 13.1716V20.1841H12.2717V13.1716H19.2842ZM38.5686 6.15908H49.0873C50.055 6.15908 50.8404 6.94448 50.8404 7.91221V18.431C50.8404 19.3987 51.6258 20.1841 52.5936 20.1841C53.5613 20.1841 54.3467 19.3987 54.3467 18.431V7.91221C54.3467 5.00728 51.9922 2.65283 49.0873 2.65283H38.5686C37.6008 2.65283 36.8154 3.43823 36.8154 4.40596C36.8154 5.37368 37.6008 6.15908 38.5686 6.15908ZM28.0498 13.1716H43.8279V18.431C43.8279 19.3987 44.6133 20.1841 45.5811 20.1841C46.5488 20.1841 47.3342 19.3987 47.3342 18.431V11.4185C47.3342 10.4507 46.5488 9.66533 45.5811 9.66533H28.0498C27.0821 9.66533 26.2967 10.4507 26.2967 11.4185C26.2967 12.3862 27.0821 13.1716 28.0498 13.1716Z" fill="#2B59C3"/>
</svg>
